<svg width="778" height="450" viewBox="0 0 778 450" fill="none" xmlns="http://www.w3.org/2000/svg">
<path d="M19.4014 246.42C16.3214 246.42 13.5614 245.92 11.1214 244.92C8.68141 243.92 6.72141 242.44 5.24141 240.48C3.80141 238.52 3.04141 236.16 2.96141 233.4H13.8814C14.0414 234.96 14.5814 236.16 15.5014 237C16.4214 237.8 17.6214 238.2 19.1014 238.2C20.6214 238.2 21.8214 237.86 22.7014 237.18C23.5814 236.46 24.0214 235.48 24.0214 234.24C24.0214 233.2 23.6614 232.34 22.9414 231.66C22.2614 230.98 21.4014 230.42 20.3614 229.98C19.3614 229.54 17.9214 229.04 16.0414 228.48C13.3214 227.64 11.1014 226.8 9.38141 225.96C7.66141 225.12 6.18141 223.88 4.94141 222.24C3.70141 220.6 3.08141 218.46 3.08141 215.82C3.08141 211.9 4.50141 208.84 7.34141 206.64C10.1814 204.4 13.8814 203.28 18.4414 203.28C23.0814 203.28 26.8214 204.4 29.6614 206.64C32.5014 208.84 34.0214 211.92 34.2214 215.88H23.1214C23.0414 214.52 22.5414 213.46 21.6214 212.7C20.7014 211.9 19.5214 211.5 18.0814 211.5C16.8414 211.5 15.8414 211.84 15.0814 212.52C14.3214 213.16 13.9414 214.1 13.9414 215.34C13.9414 216.7 14.5814 217.76 15.8614 218.52C17.1414 219.28 19.1414 220.1 21.8614 220.98C24.5814 221.9 26.7814 222.78 28.4614 223.62C30.1814 224.46 31.6614 225.68 32.9014 227.28C34.1414 228.88 34.7614 230.94 34.7614 233.46C34.7614 235.86 34.1414 238.04 32.9014 240C31.7014 241.96 29.9414 243.52 27.6214 244.68C25.3014 245.84 22.5614 246.42 19.4014 246.42ZM51.3355 212.1V220.62H65.0755V228.54H51.3355V237.78H66.8755V246H41.0755V203.88H66.8755V212.1H51.3355ZM121.236 203.88V246H110.976V220.74L101.556 246H93.2764L83.7964 220.68V246H73.5364V203.88H85.6564L97.4764 233.04L109.176 203.88H121.236ZM138.875 203.88V246H128.615V203.88H138.875ZM183.99 246H173.73L156.57 220.02V246H146.31V203.88H156.57L173.73 229.98V203.88H183.99V246ZM217.647 238.56H201.927L199.407 246H188.667L203.907 203.88H215.787L231.027 246H220.167L217.647 238.56ZM215.007 230.64L209.787 215.22L204.627 230.64H215.007ZM257.145 246L248.385 230.1H245.925V246H235.665V203.88H252.885C256.205 203.88 259.025 204.46 261.345 205.62C263.705 206.78 265.465 208.38 266.625 210.42C267.785 212.42 268.365 214.66 268.365 217.14C268.365 219.94 267.565 222.44 265.965 224.64C264.405 226.84 262.085 228.4 259.005 229.32L268.725 246H257.145ZM245.925 222.84H252.285C254.165 222.84 255.565 222.38 256.485 221.46C257.445 220.54 257.925 219.24 257.925 217.56C257.925 215.96 257.445 214.7 256.485 213.78C255.565 212.86 254.165 212.4 252.285 212.4H245.925V222.84ZM290.046 246.42C286.966 246.42 284.206 245.92 281.766 244.92C279.326 243.92 277.366 242.44 275.886 240.48C274.446 238.52 273.686 236.16 273.606 233.4H284.526C284.686 234.96 285.226 236.16 286.146 237C287.066 237.8 288.266 238.2 289.746 238.2C291.266 238.2 292.466 237.86 293.346 237.18C294.226 236.46 294.666 235.48 294.666 234.24C294.666 233.2 294.306 232.34 293.586 231.66C292.906 230.98 292.046 230.42 291.006 229.98C290.006 229.54 288.566 229.04 286.686 228.48C283.966 227.64 281.746 226.8 280.026 225.96C278.306 225.12 276.826 223.88 275.586 222.24C274.346 220.6 273.726 218.46 273.726 215.82C273.726 211.9 275.146 208.84 277.986 206.64C280.826 204.4 284.526 203.28 289.086 203.28C293.726 203.28 297.466 204.4 300.306 206.64C303.146 208.84 304.666 211.92 304.866 215.88H293.766C293.686 214.52 293.186 213.46 292.266 212.7C291.346 211.9 290.166 211.5 288.726 211.5C287.486 211.5 286.486 211.84 285.726 212.52C284.966 213.16 284.586 214.1 284.586 215.34C284.586 216.7 285.226 217.76 286.506 218.52C287.786 219.28 289.786 220.1 292.506 220.98C295.226 221.9 297.426 222.78 299.106 223.62C300.826 224.46 302.306 225.68 303.546 227.28C304.786 228.88 305.406 230.94 305.406 233.46C305.406 235.86 304.786 238.04 303.546 240C302.346 241.96 300.586 243.52 298.266 244.68C295.946 245.84 293.206 246.42 290.046 246.42Z" fill="#FFFACC"/>
<rect width="450" height="450" rx="225" transform="matrix(-1 0 0 1 778 0)" fill="#FFFACC" fill-opacity="0.1"/>
<path d="M512.75 169.25H507.75V174.25H512.75V169.25ZM512.75 129.5V124.5H507.75V129.5H512.75ZM582 129.5H587V124.5H582V129.5ZM582 312V317H587V312H582ZM537.5 312H532.5V317H537.5V312ZM537.5 169.25H542.5V164.25H537.5V169.25ZM517.75 169.25V129.5H507.75V169.25H517.75ZM512.75 134.5H582V124.5H512.75V134.5ZM577 129.5V312H587V129.5H577ZM582 307H537.5V317H582V307ZM542.5 312V169.25H532.5V312H542.5ZM537.5 164.25H512.75V174.25H537.5V164.25Z" fill="#FFFACC"/>
</svg>
