<svg width="849" height="450" viewBox="0 0 849 450" fill="none" xmlns="http://www.w3.org/2000/svg">
<path d="M50.1319 156.42C47.0519 156.42 44.2919 155.92 41.8519 154.92C39.4119 153.92 37.4519 152.44 35.9719 150.48C34.5319 148.52 33.7719 146.16 33.6919 143.4H44.6119C44.7719 144.96 45.3119 146.16 46.2319 147C47.1519 147.8 48.3519 148.2 49.8319 148.2C51.3519 148.2 52.5519 147.86 53.4319 147.18C54.3119 146.46 54.7519 145.48 54.7519 144.24C54.7519 143.2 54.3919 142.34 53.6719 141.66C52.9919 140.98 52.1319 140.42 51.0919 139.98C50.0919 139.54 48.6519 139.04 46.7719 138.48C44.0519 137.64 41.8319 136.8 40.1119 135.96C38.3919 135.12 36.9119 133.88 35.6719 132.24C34.4319 130.6 33.8119 128.46 33.8119 125.82C33.8119 121.9 35.2319 118.84 38.0719 116.64C40.9119 114.4 44.6119 113.28 49.1719 113.28C53.8119 113.28 57.5519 114.4 60.3919 116.64C63.2319 118.84 64.7519 121.92 64.9519 125.88H53.8519C53.7719 124.52 53.2719 123.46 52.3519 122.7C51.4319 121.9 50.2519 121.5 48.8119 121.5C47.5719 121.5 46.5719 121.84 45.8119 122.52C45.0519 123.16 44.6719 124.1 44.6719 125.34C44.6719 126.7 45.3119 127.76 46.5919 128.52C47.8719 129.28 49.8719 130.1 52.5919 130.98C55.3119 131.9 57.5119 132.78 59.1919 133.62C60.9119 134.46 62.3919 135.68 63.6319 137.28C64.8719 138.88 65.4919 140.94 65.4919 143.46C65.4919 145.86 64.8719 148.04 63.6319 150C62.4319 151.96 60.6719 153.52 58.3519 154.68C56.0319 155.84 53.2919 156.42 50.1319 156.42ZM91.7259 156.42C87.7659 156.42 84.1259 155.5 80.8059 153.66C77.5259 151.82 74.9059 149.26 72.9459 145.98C71.0259 142.66 70.0659 138.94 70.0659 134.82C70.0659 130.7 71.0259 127 72.9459 123.72C74.9059 120.44 77.5259 117.88 80.8059 116.04C84.1259 114.2 87.7659 113.28 91.7259 113.28C95.6859 113.28 99.3059 114.2 102.586 116.04C105.906 117.88 108.506 120.44 110.386 123.72C112.306 127 113.266 130.7 113.266 134.82C113.266 138.94 112.306 142.66 110.386 145.98C108.466 149.26 105.866 151.82 102.586 153.66C99.3059 155.5 95.6859 156.42 91.7259 156.42ZM91.7259 147.06C95.0859 147.06 97.7659 145.94 99.7659 143.7C101.806 141.46 102.826 138.5 102.826 134.82C102.826 131.1 101.806 128.14 99.7659 125.94C97.7659 123.7 95.0859 122.58 91.7259 122.58C88.3259 122.58 85.6059 123.68 83.5659 125.88C81.5659 128.08 80.5659 131.06 80.5659 134.82C80.5659 138.54 81.5659 141.52 83.5659 143.76C85.6059 145.96 88.3259 147.06 91.7259 147.06ZM129.234 148.08H142.674V156H118.974V113.88H129.234V148.08ZM187.108 113.88L172.168 156H159.328L144.388 113.88H155.308L165.748 145.68L176.248 113.88H187.108ZM201.656 122.1V130.62H215.396V138.54H201.656V147.78H217.196V156H191.396V113.88H217.196V122.1H201.656ZM258.052 156L249.292 140.1H246.832V156H236.572V113.88H253.792C257.112 113.88 259.932 114.46 262.252 115.62C264.612 116.78 266.372 118.38 267.532 120.42C268.692 122.42 269.272 124.66 269.272 127.14C269.272 129.94 268.472 132.44 266.872 134.64C265.312 136.84 262.992 138.4 259.912 139.32L269.632 156H258.052ZM246.832 132.84H253.192C255.072 132.84 256.472 132.38 257.392 131.46C258.352 130.54 258.832 129.24 258.832 127.56C258.832 125.96 258.352 124.7 257.392 123.78C256.472 122.86 255.072 122.4 253.192 122.4H246.832V132.84ZM285.972 122.1V130.62H299.712V138.54H285.972V147.78H301.512V156H275.712V113.88H301.512V122.1H285.972ZM334.393 148.56H318.673L316.153 156H305.413L320.653 113.88H332.533L347.773 156H336.913L334.393 148.56ZM331.753 140.64L326.533 125.22L321.373 140.64H331.753ZM362.671 148.08H376.111V156H352.411V113.88H362.671V148.08ZM133.672 217.44C133.672 219.88 133.112 222.12 131.992 224.16C130.872 226.16 129.152 227.78 126.832 229.02C124.512 230.26 121.632 230.88 118.192 230.88H111.832V246H101.572V203.88H118.192C121.552 203.88 124.392 204.46 126.712 205.62C129.032 206.78 130.772 208.38 131.932 210.42C133.092 212.46 133.672 214.8 133.672 217.44ZM117.412 222.72C119.372 222.72 120.832 222.26 121.792 221.34C122.752 220.42 123.232 219.12 123.232 217.44C123.232 215.76 122.752 214.46 121.792 213.54C120.832 212.62 119.372 212.16 117.412 212.16H111.832V222.72H117.412ZM160.493 246L151.733 230.1H149.273V246H139.013V203.88H156.233C159.553 203.88 162.373 204.46 164.693 205.62C167.053 206.78 168.813 208.38 169.973 210.42C171.133 212.42 171.713 214.66 171.713 217.14C171.713 219.94 170.913 222.44 169.313 224.64C167.753 226.84 165.433 228.4 162.353 229.32L172.073 246H160.493ZM149.273 222.84H155.633C157.513 222.84 158.913 222.38 159.833 221.46C160.793 220.54 161.273 219.24 161.273 217.56C161.273 215.96 160.793 214.7 159.833 213.78C158.913 212.86 157.513 212.4 155.633 212.4H149.273V222.84ZM198.074 246.42C194.114 246.42 190.474 245.5 187.154 243.66C183.874 241.82 181.254 239.26 179.294 235.98C177.374 232.66 176.414 228.94 176.414 224.82C176.414 220.7 177.374 217 179.294 213.72C181.254 210.44 183.874 207.88 187.154 206.04C190.474 204.2 194.114 203.28 198.074 203.28C202.034 203.28 205.654 204.2 208.934 206.04C212.254 207.88 214.854 210.44 216.734 213.72C218.654 217 219.614 220.7 219.614 224.82C219.614 228.94 218.654 232.66 216.734 235.98C214.814 239.26 212.214 241.82 208.934 243.66C205.654 245.5 202.034 246.42 198.074 246.42ZM198.074 237.06C201.434 237.06 204.114 235.94 206.114 233.7C208.154 231.46 209.174 228.5 209.174 224.82C209.174 221.1 208.154 218.14 206.114 215.94C204.114 213.7 201.434 212.58 198.074 212.58C194.674 212.58 191.954 213.68 189.914 215.88C187.914 218.08 186.914 221.06 186.914 224.82C186.914 228.54 187.914 231.52 189.914 233.76C191.954 235.96 194.674 237.06 198.074 237.06ZM250.822 224.4C253.262 224.92 255.222 226.14 256.702 228.06C258.182 229.94 258.922 232.1 258.922 234.54C258.922 238.06 257.682 240.86 255.202 242.94C252.762 244.98 249.342 246 244.942 246H225.322V203.88H244.282C248.562 203.88 251.902 204.86 254.302 206.82C256.742 208.78 257.962 211.44 257.962 214.8C257.962 217.28 257.302 219.34 255.982 220.98C254.702 222.62 252.982 223.76 250.822 224.4ZM235.582 220.92H242.302C243.982 220.92 245.262 220.56 246.142 219.84C247.062 219.08 247.522 217.98 247.522 216.54C247.522 215.1 247.062 214 246.142 213.24C245.262 212.48 243.982 212.1 242.302 212.1H235.582V220.92ZM243.142 237.72C244.862 237.72 246.182 237.34 247.102 236.58C248.062 235.78 248.542 234.64 248.542 233.16C248.542 231.68 248.042 230.52 247.042 229.68C246.082 228.84 244.742 228.42 243.022 228.42H235.582V237.72H243.142ZM275.132 238.08H288.572V246H264.872V203.88H275.132V238.08ZM303.726 212.1V220.62H317.466V228.54H303.726V237.78H319.266V246H293.466V203.88H319.266V212.1H303.726ZM373.627 203.88V246H363.367V220.74L353.947 246H345.667L336.187 220.68V246H325.927V203.88H338.047L349.867 233.04L361.567 203.88H373.627ZM19.4288 336.42C16.3488 336.42 13.5888 335.92 11.1488 334.92C8.70875 333.92 6.74875 332.44 5.26875 330.48C3.82875 328.52 3.06875 326.16 2.98875 323.4H13.9088C14.0688 324.96 14.6088 326.16 15.5288 327C16.4488 327.8 17.6488 328.2 19.1288 328.2C20.6488 328.2 21.8488 327.86 22.7288 327.18C23.6088 326.46 24.0488 325.48 24.0488 324.24C24.0488 323.2 23.6888 322.34 22.9688 321.66C22.2888 320.98 21.4288 320.42 20.3888 319.98C19.3888 319.54 17.9488 319.04 16.0688 318.48C13.3488 317.64 11.1288 316.8 9.40875 315.96C7.68875 315.12 6.20875 313.88 4.96875 312.24C3.72875 310.6 3.10875 308.46 3.10875 305.82C3.10875 301.9 4.52875 298.84 7.36875 296.64C10.2088 294.4 13.9088 293.28 18.4688 293.28C23.1088 293.28 26.8488 294.4 29.6888 296.64C32.5288 298.84 34.0488 301.92 34.2488 305.88H23.1488C23.0688 304.52 22.5688 303.46 21.6488 302.7C20.7288 301.9 19.5488 301.5 18.1087 301.5C16.8688 301.5 15.8688 301.84 15.1088 302.52C14.3488 303.16 13.9688 304.1 13.9688 305.34C13.9688 306.7 14.6088 307.76 15.8887 308.52C17.1688 309.28 19.1688 310.1 21.8888 310.98C24.6088 311.9 26.8088 312.78 28.4888 313.62C30.2088 314.46 31.6888 315.68 32.9288 317.28C34.1688 318.88 34.7888 320.94 34.7888 323.46C34.7888 325.86 34.1688 328.04 32.9288 330C31.7288 331.96 29.9688 333.52 27.6488 334.68C25.3288 335.84 22.5888 336.42 19.4288 336.42ZM71.4028 293.88V302.1H60.2428V336H49.9828V302.1H38.8228V293.88H71.4028ZM102.772 328.56H87.052L84.532 336H73.792L89.032 293.88H100.912L116.152 336H105.292L102.772 328.56ZM100.132 320.64L94.912 305.22L89.752 320.64H100.132ZM151.09 293.88V302.1H139.93V336H129.67V302.1H118.51V293.88H151.09ZM166.5 302.1V310.62H180.24V318.54H166.5V327.78H182.04V336H156.24V293.88H182.04V302.1H166.5ZM236.4 293.88V336H226.14V310.74L216.72 336H208.44L198.96 310.68V336H188.7V293.88H200.82L212.64 323.04L224.34 293.88H236.4ZM254.039 302.1V310.62H267.779V318.54H254.039V327.78H269.579V336H243.779V293.88H269.579V302.1H254.039ZM313.92 336H303.66L286.5 310.02V336H276.24V293.88H286.5L303.66 319.98V293.88H313.92V336ZM351.657 293.88V302.1H340.497V336H330.237V302.1H319.077V293.88H351.657ZM372.046 336.42C368.966 336.42 366.206 335.92 363.766 334.92C361.326 333.92 359.366 332.44 357.886 330.48C356.446 328.52 355.686 326.16 355.606 323.4H366.526C366.686 324.96 367.226 326.16 368.146 327C369.066 327.8 370.266 328.2 371.746 328.2C373.266 328.2 374.466 327.86 375.346 327.18C376.226 326.46 376.666 325.48 376.666 324.24C376.666 323.2 376.306 322.34 375.586 321.66C374.906 320.98 374.046 320.42 373.006 319.98C372.006 319.54 370.566 319.04 368.686 318.48C365.966 317.64 363.746 316.8 362.026 315.96C360.306 315.12 358.826 313.88 357.586 312.24C356.346 310.6 355.726 308.46 355.726 305.82C355.726 301.9 357.146 298.84 359.986 296.64C362.826 294.4 366.526 293.28 371.086 293.28C375.726 293.28 379.466 294.4 382.306 296.64C385.146 298.84 386.666 301.92 386.866 305.88H375.766C375.686 304.52 375.186 303.46 374.266 302.7C373.346 301.9 372.166 301.5 370.726 301.5C369.486 301.5 368.486 301.84 367.726 302.52C366.966 303.16 366.586 304.1 366.586 305.34C366.586 306.7 367.226 307.76 368.506 308.52C369.786 309.28 371.786 310.1 374.506 310.98C377.226 311.9 379.426 312.78 381.106 313.62C382.826 314.46 384.306 315.68 385.546 317.28C386.786 318.88 387.406 320.94 387.406 323.46C387.406 325.86 386.786 328.04 385.546 330C384.346 331.96 382.586 333.52 380.266 334.68C377.946 335.84 375.206 336.42 372.046 336.42Z" fill="#FFFACC"/>
<path d="M676.75 167.75V172.75H681.75V167.75H676.75ZM598.75 167.75V162.75H593.75V167.75H598.75ZM598.75 202.25H593.75V215.183L602.45 205.613L598.75 202.25ZM612.75 193.25L610.938 188.59L612.75 193.25ZM663.25 198.25L660.4 202.358L660.419 202.371L660.438 202.385L663.25 198.25ZM681.5 220.25L686.1 218.291L681.5 220.25ZM670.75 296L674.338 299.482L674.351 299.469L674.363 299.456L670.75 296ZM589.5 306.25L587.356 310.767L587.388 310.782L587.419 310.797L589.5 306.25ZM566.75 287L562.564 289.734L566.75 287ZM558 258.75V253.75H552.76L553.005 258.984L558 258.75ZM599.75 258.75L604.659 257.8L603.875 253.75H599.75V258.75ZM607 271.75L603.629 275.442L603.673 275.483L603.719 275.523L607 271.75ZM640 230.5L643.674 227.109L640 230.5ZM608.5 228.25L611.441 232.294L611.5 232.251L611.557 232.206L608.5 228.25ZM601.25 239V244H605.119L606.09 240.255L601.25 239ZM560 239H555V244H560V239ZM560 130.25V125.25H555V130.25H560ZM676.75 130.25H681.75V125.25H676.75V130.25ZM676.75 162.75H598.75V172.75H676.75V162.75ZM593.75 167.75V202.25H603.75V167.75H593.75ZM602.45 205.613C605.131 202.664 609.075 200.044 614.562 197.91L610.938 188.59C604.425 191.123 599.036 194.503 595.05 198.887L602.45 205.613ZM614.562 197.91C619.936 195.82 625.816 194.75 632.25 194.75V184.75C624.684 184.75 617.564 186.013 610.938 188.59L614.562 197.91ZM632.25 194.75C643.995 194.75 653.263 197.406 660.4 202.358L666.1 194.142C656.904 187.761 645.505 184.75 632.25 184.75V194.75ZM660.438 202.385C668.005 207.53 673.454 214.118 676.9 222.209L686.1 218.291C681.88 208.382 675.162 200.304 666.062 194.115L660.438 202.385ZM676.9 222.209C680.45 230.545 682.25 239.623 682.25 249.5H692.25C692.25 238.377 690.216 227.955 686.1 218.291L676.9 222.209ZM682.25 249.5C682.25 268.019 677.055 282.174 667.137 292.544L674.363 299.456C686.445 286.826 692.25 269.981 692.25 249.5H682.25ZM667.162 292.518C657.339 302.638 643.278 308 624.25 308V318C645.222 318 662.161 312.029 674.338 299.482L667.162 292.518ZM624.25 308C611.472 308 600.627 305.843 591.581 301.703L587.419 310.797C598.039 315.657 610.362 318 624.25 318V308ZM591.644 301.733C582.543 297.414 575.709 291.575 570.936 284.266L562.564 289.734C568.457 298.759 576.79 305.753 587.356 310.767L591.644 301.733ZM570.936 284.266C566.136 276.915 563.457 268.379 562.995 258.516L553.005 258.984C553.543 270.454 556.697 280.751 562.564 289.734L570.936 284.266ZM558 263.75H599.75V253.75H558V263.75ZM594.841 259.7C596.042 265.907 598.99 271.207 603.629 275.442L610.371 268.058C607.344 265.293 605.458 261.927 604.659 257.8L594.841 259.7ZM603.719 275.523C608.715 279.867 615.261 281.75 622.75 281.75V271.75C616.906 271.75 612.952 270.299 610.281 267.977L603.719 275.523ZM622.75 281.75C631.72 281.75 639.21 278.825 644.218 272.292L636.282 266.208C633.623 269.675 629.447 271.75 622.75 271.75V281.75ZM644.218 272.292C648.908 266.174 651 258.329 651 249.25H641C641 256.838 639.258 262.326 636.282 266.208L644.218 272.292ZM651 249.25C651 240.313 648.808 232.67 643.674 227.109L636.326 233.891C639.192 236.997 641 241.853 641 249.25H651ZM643.674 227.109C638.464 221.465 631.12 219 622.5 219V229C629.213 229 633.536 230.869 636.326 233.891L643.674 227.109ZM622.5 219C615.98 219 610.166 220.644 605.443 224.294L611.557 232.206C614.167 230.19 617.687 229 622.5 229V219ZM605.559 224.206C600.93 227.573 597.859 232.155 596.41 237.745L606.09 240.255C606.974 236.845 608.737 234.26 611.441 232.294L605.559 224.206ZM601.25 234H560V244H601.25V234ZM565 239V130.25H555V239H565ZM560 135.25H676.75V125.25H560V135.25ZM671.75 130.25V167.75H681.75V130.25H671.75Z" fill="#FFFACC"/>
<rect width="450" height="450" rx="225" transform="matrix(-1 0 0 1 849 0)" fill="#FFFACC" fill-opacity="0.1"/>
</svg>
