<svg width="780" height="450" viewBox="0 0 780 450" fill="none" xmlns="http://www.w3.org/2000/svg">
<path d="M502.98 122.1V130.62H516.72V138.54H502.98V147.78H518.52V156H492.72V113.88H518.52V122.1H502.98ZM550.981 156L542.401 143.1L534.841 156H523.201L536.701 134.58L522.901 113.88H534.841L543.301 126.6L550.741 113.88H562.381L549.001 135.12L562.921 156H550.981ZM600.172 127.44C600.172 129.88 599.612 132.12 598.492 134.16C597.372 136.16 595.652 137.78 593.332 139.02C591.012 140.26 588.132 140.88 584.692 140.88H578.332V156H568.072V113.88H584.692C588.052 113.88 590.892 114.46 593.212 115.62C595.532 116.78 597.272 118.38 598.432 120.42C599.592 122.46 600.172 124.8 600.172 127.44ZM583.912 132.72C585.872 132.72 587.332 132.26 588.292 131.34C589.252 130.42 589.732 129.12 589.732 127.44C589.732 125.76 589.252 124.46 588.292 123.54C587.332 122.62 585.872 122.16 583.912 122.16H578.332V132.72H583.912ZM615.773 122.1V130.62H629.513V138.54H615.773V147.78H631.313V156H605.513V113.88H631.313V122.1H615.773ZM659.454 156L650.694 140.1H648.234V156H637.974V113.88H655.194C658.514 113.88 661.334 114.46 663.654 115.62C666.014 116.78 667.774 118.38 668.934 120.42C670.094 122.42 670.674 124.66 670.674 127.14C670.674 129.94 669.874 132.44 668.274 134.64C666.714 136.84 664.394 138.4 661.314 139.32L671.034 156H659.454ZM648.234 132.84H654.594C656.474 132.84 657.874 132.38 658.794 131.46C659.754 130.54 660.234 129.24 660.234 127.56C660.234 125.96 659.754 124.7 658.794 123.78C657.874 122.86 656.474 122.4 654.594 122.4H648.234V132.84ZM707.415 113.88V122.1H696.255V156H685.995V122.1H674.835V113.88H707.415ZM540.42 203.88V246H530.16V220.74L520.74 246H512.46L502.98 220.68V246H492.72V203.88H504.84L516.66 233.04L528.36 203.88H540.42ZM558.058 212.1V220.62H571.798V228.54H558.058V237.78H573.598V246H547.798V203.88H573.598V212.1H558.058ZM617.939 246H607.679L590.519 220.02V246H580.259V203.88H590.519L607.679 229.98V203.88H617.939V246ZM655.676 203.88V212.1H644.516V246H634.256V212.1H623.096V203.88H655.676ZM680.745 246.42C676.785 246.42 673.145 245.5 669.825 243.66C666.545 241.82 663.925 239.26 661.965 235.98C660.045 232.66 659.085 228.94 659.085 224.82C659.085 220.7 660.045 217 661.965 213.72C663.925 210.44 666.545 207.88 669.825 206.04C673.145 204.2 676.785 203.28 680.745 203.28C684.705 203.28 688.325 204.2 691.605 206.04C694.925 207.88 697.525 210.44 699.405 213.72C701.325 217 702.285 220.7 702.285 224.82C702.285 228.94 701.325 232.66 699.405 235.98C697.485 239.26 694.885 241.82 691.605 243.66C688.325 245.5 684.705 246.42 680.745 246.42ZM680.745 237.06C684.105 237.06 686.785 235.94 688.785 233.7C690.825 231.46 691.845 228.5 691.845 224.82C691.845 221.1 690.825 218.14 688.785 215.94C686.785 213.7 684.105 212.58 680.745 212.58C677.345 212.58 674.625 213.68 672.585 215.88C670.585 218.08 669.585 221.06 669.585 224.82C669.585 228.54 670.585 231.52 672.585 233.76C674.625 235.96 677.345 237.06 680.745 237.06ZM729.473 246L720.713 230.1H718.253V246H707.993V203.88H725.213C728.533 203.88 731.353 204.46 733.673 205.62C736.033 206.78 737.793 208.38 738.953 210.42C740.113 212.42 740.693 214.66 740.693 217.14C740.693 219.94 739.893 222.44 738.293 224.64C736.733 226.84 734.413 228.4 731.333 229.32L741.053 246H729.473ZM718.253 222.84H724.613C726.493 222.84 727.893 222.38 728.813 221.46C729.773 220.54 730.253 219.24 730.253 217.56C730.253 215.96 729.773 214.7 728.813 213.78C727.893 212.86 726.493 212.4 724.613 212.4H718.253V222.84ZM507.96 336.42C504.88 336.42 502.12 335.92 499.68 334.92C497.24 333.92 495.28 332.44 493.8 330.48C492.36 328.52 491.6 326.16 491.52 323.4H502.44C502.6 324.96 503.14 326.16 504.06 327C504.98 327.8 506.18 328.2 507.66 328.2C509.18 328.2 510.38 327.86 511.26 327.18C512.14 326.46 512.58 325.48 512.58 324.24C512.58 323.2 512.22 322.34 511.5 321.66C510.82 320.98 509.96 320.42 508.92 319.98C507.92 319.54 506.48 319.04 504.6 318.48C501.88 317.64 499.66 316.8 497.94 315.96C496.22 315.12 494.74 313.88 493.5 312.24C492.26 310.6 491.64 308.46 491.64 305.82C491.64 301.9 493.06 298.84 495.9 296.64C498.74 294.4 502.44 293.28 507 293.28C511.64 293.28 515.38 294.4 518.22 296.64C521.06 298.84 522.58 301.92 522.78 305.88H511.68C511.6 304.52 511.1 303.46 510.18 302.7C509.26 301.9 508.08 301.5 506.64 301.5C505.4 301.5 504.4 301.84 503.64 302.52C502.88 303.16 502.5 304.1 502.5 305.34C502.5 306.7 503.14 307.76 504.42 308.52C505.7 309.28 507.7 310.1 510.42 310.98C513.14 311.9 515.34 312.78 517.02 313.62C518.74 314.46 520.22 315.68 521.46 317.28C522.7 318.88 523.32 320.94 523.32 323.46C523.32 325.86 522.7 328.04 521.46 330C520.26 331.96 518.5 333.52 516.18 334.68C513.86 335.84 511.12 336.42 507.96 336.42ZM539.894 302.1V310.62H553.634V318.54H539.894V327.78H555.434V336H529.634V293.88H555.434V302.1H539.894ZM577.335 336.42C574.255 336.42 571.495 335.92 569.055 334.92C566.615 333.92 564.655 332.44 563.175 330.48C561.735 328.52 560.975 326.16 560.895 323.4H571.815C571.975 324.96 572.515 326.16 573.435 327C574.355 327.8 575.555 328.2 577.035 328.2C578.555 328.2 579.755 327.86 580.635 327.18C581.515 326.46 581.955 325.48 581.955 324.24C581.955 323.2 581.595 322.34 580.875 321.66C580.195 320.98 579.335 320.42 578.295 319.98C577.295 319.54 575.855 319.04 573.975 318.48C571.255 317.64 569.035 316.8 567.315 315.96C565.595 315.12 564.115 313.88 562.875 312.24C561.635 310.6 561.015 308.46 561.015 305.82C561.015 301.9 562.435 298.84 565.275 296.64C568.115 294.4 571.815 293.28 576.375 293.28C581.015 293.28 584.755 294.4 587.595 296.64C590.435 298.84 591.955 301.92 592.155 305.88H581.055C580.975 304.52 580.475 303.46 579.555 302.7C578.635 301.9 577.455 301.5 576.015 301.5C574.775 301.5 573.775 301.84 573.015 302.52C572.255 303.16 571.875 304.1 571.875 305.34C571.875 306.7 572.515 307.76 573.795 308.52C575.075 309.28 577.075 310.1 579.795 310.98C582.515 311.9 584.715 312.78 586.395 313.62C588.115 314.46 589.595 315.68 590.835 317.28C592.075 318.88 592.695 320.94 592.695 323.46C592.695 325.86 592.075 328.04 590.835 330C589.635 331.96 587.875 333.52 585.555 334.68C583.235 335.84 580.495 336.42 577.335 336.42ZM614.249 336.42C611.169 336.42 608.409 335.92 605.969 334.92C603.529 333.92 601.569 332.44 600.089 330.48C598.649 328.52 597.889 326.16 597.809 323.4H608.729C608.889 324.96 609.429 326.16 610.349 327C611.269 327.8 612.469 328.2 613.949 328.2C615.469 328.2 616.669 327.86 617.549 327.18C618.429 326.46 618.869 325.48 618.869 324.24C618.869 323.2 618.509 322.34 617.789 321.66C617.109 320.98 616.249 320.42 615.209 319.98C614.209 319.54 612.769 319.04 610.889 318.48C608.169 317.64 605.949 316.8 604.229 315.96C602.509 315.12 601.029 313.88 599.789 312.24C598.549 310.6 597.929 308.46 597.929 305.82C597.929 301.9 599.349 298.84 602.189 296.64C605.029 294.4 608.729 293.28 613.289 293.28C617.929 293.28 621.669 294.4 624.509 296.64C627.349 298.84 628.869 301.92 629.069 305.88H617.969C617.889 304.52 617.389 303.46 616.469 302.7C615.549 301.9 614.369 301.5 612.929 301.5C611.689 301.5 610.689 301.84 609.929 302.52C609.169 303.16 608.789 304.1 608.789 305.34C608.789 306.7 609.429 307.76 610.709 308.52C611.989 309.28 613.989 310.1 616.709 310.98C619.429 311.9 621.629 312.78 623.309 313.62C625.029 314.46 626.509 315.68 627.749 317.28C628.989 318.88 629.609 320.94 629.609 323.46C629.609 325.86 628.989 328.04 627.749 330C626.549 331.96 624.789 333.52 622.469 334.68C620.149 335.84 617.409 336.42 614.249 336.42ZM646.183 293.88V336H635.923V293.88H646.183ZM673.538 336.42C669.578 336.42 665.938 335.5 662.618 333.66C659.338 331.82 656.718 329.26 654.758 325.98C652.838 322.66 651.878 318.94 651.878 314.82C651.878 310.7 652.838 307 654.758 303.72C656.718 300.44 659.338 297.88 662.618 296.04C665.938 294.2 669.578 293.28 673.538 293.28C677.498 293.28 681.118 294.2 684.398 296.04C687.718 297.88 690.318 300.44 692.198 303.72C694.118 307 695.078 310.7 695.078 314.82C695.078 318.94 694.118 322.66 692.198 325.98C690.278 329.26 687.678 331.82 684.398 333.66C681.118 335.5 677.498 336.42 673.538 336.42ZM673.538 327.06C676.898 327.06 679.578 325.94 681.578 323.7C683.618 321.46 684.638 318.5 684.638 314.82C684.638 311.1 683.618 308.14 681.578 305.94C679.578 303.7 676.898 302.58 673.538 302.58C670.138 302.58 667.418 303.68 665.378 305.88C663.378 308.08 662.378 311.06 662.378 314.82C662.378 318.54 663.378 321.52 665.378 323.76C667.418 325.96 670.138 327.06 673.538 327.06ZM738.466 336H728.206L711.046 310.02V336H700.786V293.88H711.046L728.206 319.98V293.88H738.466V336ZM761.144 336.42C758.064 336.42 755.304 335.92 752.864 334.92C750.424 333.92 748.464 332.44 746.984 330.48C745.544 328.52 744.784 326.16 744.704 323.4H755.624C755.784 324.96 756.324 326.16 757.244 327C758.164 327.8 759.364 328.2 760.844 328.2C762.364 328.2 763.564 327.86 764.444 327.18C765.324 326.46 765.764 325.48 765.764 324.24C765.764 323.2 765.404 322.34 764.684 321.66C764.004 320.98 763.144 320.42 762.104 319.98C761.104 319.54 759.664 319.04 757.784 318.48C755.064 317.64 752.844 316.8 751.124 315.96C749.404 315.12 747.924 313.88 746.684 312.24C745.444 310.6 744.824 308.46 744.824 305.82C744.824 301.9 746.244 298.84 749.084 296.64C751.924 294.4 755.624 293.28 760.184 293.28C764.824 293.28 768.564 294.4 771.404 296.64C774.244 298.84 775.764 301.92 775.964 305.88H764.864C764.784 304.52 764.284 303.46 763.364 302.7C762.444 301.9 761.264 301.5 759.824 301.5C758.584 301.5 757.584 301.84 756.824 302.52C756.064 303.16 755.684 304.1 755.684 305.34C755.684 306.7 756.324 307.76 757.604 308.52C758.884 309.28 760.884 310.1 763.604 310.98C766.324 311.9 768.524 312.78 770.204 313.62C771.924 314.46 773.404 315.68 774.644 317.28C775.884 318.88 776.504 320.94 776.504 323.46C776.504 325.86 775.884 328.04 774.644 330C773.444 331.96 771.684 333.52 769.364 334.68C767.044 335.84 764.304 336.42 761.144 336.42Z" fill="#FFFACC"/>
<rect width="450" height="450" rx="225" transform="matrix(-1 0 0 1 450 0)" fill="#FFFACC" fill-opacity="0.1"/>
<path d="M246.5 178.75L241.613 179.807L242.466 183.75H246.5V178.75ZM239.5 165L236.056 168.625L236.105 168.671L236.155 168.716L239.5 165ZM204.75 172.75L209.204 175.022L209.213 175.004L209.222 174.986L204.75 172.75ZM198.25 211.75L193.25 211.703L193.085 229.362L202.483 214.411L198.25 211.75ZM214 198L211.85 193.486L211.829 193.496L211.808 193.506L214 198ZM276.25 208.5L272.628 211.947L272.642 211.962L272.657 211.977L276.25 208.5ZM283.75 283.75L279.361 281.356L279.344 281.387L279.327 281.418L283.75 283.75ZM262.25 305.25L259.861 300.858L259.845 300.866L259.828 300.876L262.25 305.25ZM175.5 289L171.248 291.63L171.254 291.64L171.26 291.65L175.5 289ZM176.25 149L172.131 146.165L172.125 146.175L176.25 149ZM258.75 133.25L256.215 137.56L256.264 137.589L256.315 137.617L258.75 133.25ZM278.25 152.5L273.854 154.881L273.873 154.917L273.892 154.951L278.25 152.5ZM286.25 178.75V183.75H291.708L291.231 178.313L286.25 178.75ZM208.75 233.25L212.08 236.98L212.088 236.973L208.75 233.25ZM208.25 270L204.648 273.468L204.681 273.502L204.714 273.536L208.25 270ZM244.5 270.25L240.898 266.782L240.896 266.784L244.5 270.25ZM251.387 177.693C249.919 170.905 247.219 165.22 242.845 161.284L236.155 168.716C238.448 170.78 240.414 174.262 241.613 179.807L251.387 177.693ZM242.944 161.375C238.401 157.059 232.251 155.25 225.25 155.25V165.25C230.582 165.25 233.933 166.607 236.056 168.625L242.944 161.375ZM225.25 155.25C219.755 155.25 214.734 156.462 210.397 159.106C206.055 161.754 202.711 165.648 200.278 170.514L209.222 174.986C210.956 171.519 213.112 169.163 215.603 167.644C218.1 166.122 221.245 165.25 225.25 165.25V155.25ZM200.296 170.478C195.581 179.72 193.419 193.694 193.25 211.703L203.25 211.797C203.415 194.139 205.586 182.113 209.204 175.022L200.296 170.478ZM202.483 214.411C205.603 209.447 210.107 205.462 216.192 202.494L211.808 193.506C204.226 197.205 198.23 202.386 194.017 209.089L202.483 214.411ZM216.15 202.514C222.429 199.524 229.354 198 237 198V188C227.98 188 219.571 189.809 211.85 193.486L216.15 202.514ZM237 198C252.182 198 263.878 202.752 272.628 211.947L279.872 205.053C268.955 193.581 254.485 188 237 188V198ZM272.657 211.977C281.517 221.133 286.25 234.161 286.25 251.75H296.25C296.25 232.339 290.983 216.534 279.843 205.023L272.657 211.977ZM286.25 251.75C286.25 263.219 283.898 273.037 279.361 281.356L288.139 286.144C293.602 276.13 296.25 264.614 296.25 251.75H286.25ZM279.327 281.418C274.975 289.673 268.535 296.14 259.861 300.858L264.639 309.642C274.965 304.026 282.859 296.16 288.173 286.082L279.327 281.418ZM259.828 300.876C251.373 305.556 241.158 308 229 308V318C242.509 318 254.46 315.277 264.672 309.624L259.828 300.876ZM229 308C204.366 308 188.512 300.385 179.74 286.35L171.26 291.65C182.488 309.615 202.301 318 229 318V308ZM179.752 286.37C170.449 271.33 165.5 249.234 165.5 219.5H155.5C155.5 250.099 160.551 274.337 171.248 291.63L179.752 286.37ZM165.5 219.5C165.5 188.208 170.721 165.924 180.375 151.825L172.125 146.175C160.779 162.743 155.5 187.459 155.5 219.5H165.5ZM180.369 151.835C189.875 138.021 205.116 130.75 227.25 130.75V120.75C202.717 120.75 183.958 128.979 172.131 146.165L180.369 151.835ZM227.25 130.75C239.094 130.75 248.663 133.118 256.215 137.56L261.285 128.94C251.837 123.382 240.407 120.75 227.25 120.75V130.75ZM256.315 137.617C264.231 142.031 270.013 147.791 273.854 154.881L282.646 150.119C277.82 141.209 270.603 134.135 261.185 128.883L256.315 137.617ZM273.892 154.951C278.03 162.307 280.495 170.367 281.269 179.187L291.231 178.313C290.338 168.133 287.47 158.693 282.608 150.049L273.892 154.951ZM286.25 173.75H246.5V183.75H286.25V173.75ZM226.75 221.75C218.49 221.75 211.261 224.284 205.412 229.527L212.088 236.973C215.906 233.55 220.677 231.75 226.75 231.75V221.75ZM205.42 229.52C199.433 234.866 196.75 242.378 196.75 251.25H206.75C206.75 244.455 208.733 239.968 212.08 236.98L205.42 229.52ZM196.75 251.25C196.75 260.165 199.186 267.796 204.648 273.468L211.852 266.532C208.647 263.204 206.75 258.335 206.75 251.25H196.75ZM204.714 273.536C210.398 279.219 218.151 281.75 227.25 281.75V271.75C220.016 271.75 215.102 269.781 211.786 266.464L204.714 273.536ZM227.25 281.75C235.623 281.75 242.794 279.238 248.104 273.716L240.896 266.784C237.873 269.928 233.544 271.75 227.25 271.75V281.75ZM248.102 273.718C253.527 268.085 256 260.65 256 252H246C246 258.684 244.14 263.415 240.898 266.782L248.102 273.718ZM256 252C256 243.269 253.659 235.762 248.419 230.103L241.081 236.897C244.174 240.238 246 245.064 246 252H256ZM248.419 230.103C243.059 224.315 235.566 221.75 226.75 221.75V231.75C233.601 231.75 238.107 233.685 241.081 236.897L248.419 230.103Z" fill="#FFFACC"/>
</svg>
