<svg width="872" height="450" viewBox="0 0 872 450" fill="none" xmlns="http://www.w3.org/2000/svg">
<path d="M497.8 139.88V165.08C497.8 167.6 498.42 169.54 499.66 170.9C500.9 172.26 502.72 172.94 505.12 172.94C507.52 172.94 509.36 172.26 510.64 170.9C511.92 169.54 512.56 167.6 512.56 165.08V139.88H522.82V165.02C522.82 168.78 522.02 171.96 520.42 174.56C518.82 177.16 516.66 179.12 513.94 180.44C511.26 181.76 508.26 182.42 504.94 182.42C501.62 182.42 498.64 181.78 496 180.5C493.4 179.18 491.34 177.22 489.82 174.62C488.3 171.98 487.54 168.78 487.54 165.02V139.88H497.8ZM555.825 182L547.245 169.1L539.685 182H528.045L541.545 160.58L527.745 139.88H539.685L548.145 152.6L555.585 139.88H567.225L553.845 161.12L567.765 182H555.825ZM518.02 229.88V238.1H506.86V272H496.6V238.1H485.44V229.88H518.02ZM533.429 238.1V246.62H547.169V254.54H533.429V263.78H548.969V272H523.169V229.88H548.969V238.1H533.429ZM581.85 264.56H566.13L563.61 272H552.87L568.11 229.88H579.99L595.23 272H584.37L581.85 264.56ZM579.21 256.64L573.99 241.22L568.83 256.64H579.21ZM621.348 272L612.588 256.1H610.128V272H599.868V229.88H617.088C620.408 229.88 623.228 230.46 625.548 231.62C627.908 232.78 629.668 234.38 630.828 236.42C631.988 238.42 632.568 240.66 632.568 243.14C632.568 245.94 631.768 248.44 630.168 250.64C628.608 252.84 626.288 254.4 623.208 255.32L632.928 272H621.348ZM610.128 248.84H616.488C618.368 248.84 619.768 248.38 620.688 247.46C621.648 246.54 622.128 245.24 622.128 243.56C622.128 241.96 621.648 240.7 620.688 239.78C619.768 238.86 618.368 238.4 616.488 238.4H610.128V248.84ZM654.789 229.88C659.229 229.88 663.109 230.76 666.429 232.52C669.749 234.28 672.309 236.76 674.109 239.96C675.949 243.12 676.869 246.78 676.869 250.94C676.869 255.06 675.949 258.72 674.109 261.92C672.309 265.12 669.729 267.6 666.369 269.36C663.049 271.12 659.189 272 654.789 272H639.009V229.88H654.789ZM654.129 263.12C658.009 263.12 661.029 262.06 663.189 259.94C665.349 257.82 666.429 254.82 666.429 250.94C666.429 247.06 665.349 244.04 663.189 241.88C661.029 239.72 658.009 238.64 654.129 238.64H649.269V263.12H654.129ZM702.523 272.42C698.563 272.42 694.923 271.5 691.603 269.66C688.323 267.82 685.703 265.26 683.743 261.98C681.823 258.66 680.863 254.94 680.863 250.82C680.863 246.7 681.823 243 683.743 239.72C685.703 236.44 688.323 233.88 691.603 232.04C694.923 230.2 698.563 229.28 702.523 229.28C706.483 229.28 710.103 230.2 713.383 232.04C716.703 233.88 719.303 236.44 721.183 239.72C723.103 243 724.063 246.7 724.063 250.82C724.063 254.94 723.103 258.66 721.183 261.98C719.263 265.26 716.663 267.82 713.383 269.66C710.103 271.5 706.483 272.42 702.523 272.42ZM702.523 263.06C705.883 263.06 708.563 261.94 710.563 259.7C712.603 257.46 713.623 254.5 713.623 250.82C713.623 247.1 712.603 244.14 710.563 241.94C708.563 239.7 705.883 238.58 702.523 238.58C699.123 238.58 696.403 239.68 694.363 241.88C692.363 244.08 691.363 247.06 691.363 250.82C691.363 254.54 692.363 257.52 694.363 259.76C696.403 261.96 699.123 263.06 702.523 263.06ZM787.731 229.88L776.751 272H764.331L757.611 244.28L750.651 272H738.231L727.551 229.88H738.531L744.591 260.54L752.091 229.88H763.371L770.571 260.54L776.691 229.88H787.731ZM830.556 272H820.296L803.136 246.02V272H792.876V229.88H803.136L820.296 255.98V229.88H830.556V272ZM853.233 272.42C850.153 272.42 847.393 271.92 844.953 270.92C842.513 269.92 840.553 268.44 839.073 266.48C837.633 264.52 836.873 262.16 836.793 259.4H847.713C847.873 260.96 848.413 262.16 849.333 263C850.253 263.8 851.453 264.2 852.933 264.2C854.453 264.2 855.653 263.86 856.533 263.18C857.413 262.46 857.853 261.48 857.853 260.24C857.853 259.2 857.493 258.34 856.773 257.66C856.093 256.98 855.233 256.42 854.193 255.98C853.193 255.54 851.753 255.04 849.873 254.48C847.153 253.64 844.933 252.8 843.213 251.96C841.493 251.12 840.013 249.88 838.773 248.24C837.533 246.6 836.913 244.46 836.913 241.82C836.913 237.9 838.333 234.84 841.173 232.64C844.013 230.4 847.713 229.28 852.273 229.28C856.913 229.28 860.653 230.4 863.493 232.64C866.333 234.84 867.853 237.92 868.053 241.88H856.953C856.873 240.52 856.373 239.46 855.453 238.7C854.533 237.9 853.353 237.5 851.913 237.5C850.673 237.5 849.673 237.84 848.913 238.52C848.153 239.16 847.773 240.1 847.773 241.34C847.773 242.7 848.413 243.76 849.693 244.52C850.973 245.28 852.973 246.1 855.693 246.98C858.413 247.9 860.613 248.78 862.293 249.62C864.013 250.46 865.493 251.68 866.733 253.28C867.973 254.88 868.593 256.94 868.593 259.46C868.593 261.86 867.973 264.04 866.733 266C865.533 267.96 863.773 269.52 861.453 270.68C859.133 271.84 856.393 272.42 853.233 272.42Z" fill="#FFFACC"/>
<rect width="450" height="450" rx="225" transform="matrix(-1 0 0 1 450 0)" fill="#FFFACC" fill-opacity="0.1"/>
<path d="M152.25 279.5H147.25V284.5H152.25V279.5ZM152.25 245L148.152 242.135L147.25 243.426V245H152.25ZM231.25 132V127H228.645L227.152 129.135L231.25 132ZM279 132H284V127H279V132ZM279 242.5H274V247.5H279V242.5ZM299.5 242.5H304.5V237.5H299.5V242.5ZM299.5 279.5V284.5H304.5V279.5H299.5ZM279 279.5V274.5H274V279.5H279ZM279 312V317H284V312H279ZM236.25 312H231.25V317H236.25V312ZM236.25 279.5H241.25V274.5H236.25V279.5ZM239.25 179H244.25V162.377L235.08 176.242L239.25 179ZM197.25 242.5L193.08 239.742L187.948 247.5H197.25V242.5ZM239.25 242.5V247.5H244.25V242.5H239.25ZM157.25 279.5V245H147.25V279.5H157.25ZM156.348 247.865L235.348 134.865L227.152 129.135L148.152 242.135L156.348 247.865ZM231.25 137H279V127H231.25V137ZM274 132V242.5H284V132H274ZM279 247.5H299.5V237.5H279V247.5ZM294.5 242.5V279.5H304.5V242.5H294.5ZM299.5 274.5H279V284.5H299.5V274.5ZM274 279.5V312H284V279.5H274ZM279 307H236.25V317H279V307ZM241.25 312V279.5H231.25V312H241.25ZM236.25 274.5H152.25V284.5H236.25V274.5ZM235.08 176.242L193.08 239.742L201.42 245.258L243.42 181.758L235.08 176.242ZM197.25 247.5H239.25V237.5H197.25V247.5ZM244.25 242.5V179H234.25V242.5H244.25Z" fill="#FFFACC"/>
</svg>
