<svg width="843" height="450" viewBox="0 0 843 450" fill="none" xmlns="http://www.w3.org/2000/svg">
<path d="M182.016 150.88C186.456 150.88 190.336 151.76 193.656 153.52C196.976 155.28 199.536 157.76 201.336 160.96C203.176 164.12 204.096 167.78 204.096 171.94C204.096 176.06 203.176 179.72 201.336 182.92C199.536 186.12 196.956 188.6 193.596 190.36C190.276 192.12 186.416 193 182.016 193H166.236V150.88H182.016ZM181.356 184.12C185.236 184.12 188.256 183.06 190.416 180.94C192.576 178.82 193.656 175.82 193.656 171.94C193.656 168.06 192.576 165.04 190.416 162.88C188.256 160.72 185.236 159.64 181.356 159.64H176.496V184.12H181.356ZM220.089 159.1V167.62H233.829V175.54H220.089V184.78H235.629V193H209.829V150.88H235.629V159.1H220.089ZM257.53 193.42C254.45 193.42 251.69 192.92 249.25 191.92C246.81 190.92 244.85 189.44 243.37 187.48C241.93 185.52 241.17 183.16 241.09 180.4H252.01C252.17 181.96 252.71 183.16 253.63 184C254.55 184.8 255.75 185.2 257.23 185.2C258.75 185.2 259.95 184.86 260.83 184.18C261.71 183.46 262.15 182.48 262.15 181.24C262.15 180.2 261.79 179.34 261.07 178.66C260.39 177.98 259.53 177.42 258.49 176.98C257.49 176.54 256.05 176.04 254.17 175.48C251.45 174.64 249.23 173.8 247.51 172.96C245.79 172.12 244.31 170.88 243.07 169.24C241.83 167.6 241.21 165.46 241.21 162.82C241.21 158.9 242.63 155.84 245.47 153.64C248.31 151.4 252.01 150.28 256.57 150.28C261.21 150.28 264.95 151.4 267.79 153.64C270.63 155.84 272.15 158.92 272.35 162.88H261.25C261.17 161.52 260.67 160.46 259.75 159.7C258.83 158.9 257.65 158.5 256.21 158.5C254.97 158.5 253.97 158.84 253.21 159.52C252.45 160.16 252.07 161.1 252.07 162.34C252.07 163.7 252.71 164.76 253.99 165.52C255.27 166.28 257.27 167.1 259.99 167.98C262.71 168.9 264.91 169.78 266.59 170.62C268.31 171.46 269.79 172.68 271.03 174.28C272.27 175.88 272.89 177.94 272.89 180.46C272.89 182.86 272.27 185.04 271.03 187C269.83 188.96 268.07 190.52 265.75 191.68C263.43 192.84 260.69 193.42 257.53 193.42ZM289.464 150.88V193H279.204V150.88H289.464ZM324.86 164.2C324.1 162.8 323 161.74 321.56 161.02C320.16 160.26 318.5 159.88 316.58 159.88C313.26 159.88 310.6 160.98 308.6 163.18C306.6 165.34 305.6 168.24 305.6 171.88C305.6 175.76 306.64 178.8 308.72 181C310.84 183.16 313.74 184.24 317.42 184.24C319.94 184.24 322.06 183.6 323.78 182.32C325.54 181.04 326.82 179.2 327.62 176.8H314.6V169.24H336.92V178.78C336.16 181.34 334.86 183.72 333.02 185.92C331.22 188.12 328.92 189.9 326.12 191.26C323.32 192.62 320.16 193.3 316.64 193.3C312.48 193.3 308.76 192.4 305.48 190.6C302.24 188.76 299.7 186.22 297.86 182.98C296.06 179.74 295.16 176.04 295.16 171.88C295.16 167.72 296.06 164.02 297.86 160.78C299.7 157.5 302.24 154.96 305.48 153.16C308.72 151.32 312.42 150.4 316.58 150.4C321.62 150.4 325.86 151.62 329.3 154.06C332.78 156.5 335.08 159.88 336.2 164.2H324.86ZM380.283 193H370.023L352.863 167.02V193H342.603V150.88H352.863L370.023 176.98V150.88H380.283V193ZM2.30812 261.88C2.30812 257.72 3.20813 254.02 5.00813 250.78C6.80813 247.5 9.30813 244.96 12.5081 243.16C15.7481 241.32 19.4081 240.4 23.4881 240.4C28.4881 240.4 32.7681 241.72 36.3281 244.36C39.8881 247 42.2681 250.6 43.4681 255.16H32.1881C31.3481 253.4 30.1481 252.06 28.5881 251.14C27.0681 250.22 25.3281 249.76 23.3681 249.76C20.2081 249.76 17.6481 250.86 15.6881 253.06C13.7281 255.26 12.7481 258.2 12.7481 261.88C12.7481 265.56 13.7281 268.5 15.6881 270.7C17.6481 272.9 20.2081 274 23.3681 274C25.3281 274 27.0681 273.54 28.5881 272.62C30.1481 271.7 31.3481 270.36 32.1881 268.6H43.4681C42.2681 273.16 39.8881 276.76 36.3281 279.4C32.7681 282 28.4881 283.3 23.4881 283.3C19.4081 283.3 15.7481 282.4 12.5081 280.6C9.30813 278.76 6.80813 276.22 5.00813 272.98C3.20813 269.74 2.30812 266.04 2.30812 261.88ZM86.2313 240.88V283H75.9713V265.66H60.0113V283H49.7513V240.88H60.0113V257.38H75.9713V240.88H86.2313ZM119.858 275.56H104.138L101.618 283H90.878L106.118 240.88H117.998L133.238 283H122.378L119.858 275.56ZM117.218 267.64L111.998 252.22L106.838 267.64H117.218ZM148.136 275.08H161.576V283H137.876V240.88H148.136V275.08ZM176.73 275.08H190.17V283H166.47V240.88H176.73V275.08ZM205.324 249.1V257.62H219.064V265.54H205.324V274.78H220.864V283H195.064V240.88H220.864V249.1H205.324ZM265.205 283H254.945L237.785 257.02V283H227.525V240.88H237.785L254.945 266.98V240.88H265.205V283ZM300.602 254.2C299.842 252.8 298.742 251.74 297.302 251.02C295.902 250.26 294.242 249.88 292.322 249.88C289.002 249.88 286.342 250.98 284.342 253.18C282.342 255.34 281.342 258.24 281.342 261.88C281.342 265.76 282.382 268.8 284.462 271C286.582 273.16 289.482 274.24 293.162 274.24C295.682 274.24 297.802 273.6 299.522 272.32C301.282 271.04 302.562 269.2 303.362 266.8H290.342V259.24H312.662V268.78C311.902 271.34 310.602 273.72 308.762 275.92C306.962 278.12 304.662 279.9 301.862 281.26C299.062 282.62 295.902 283.3 292.382 283.3C288.222 283.3 284.502 282.4 281.222 280.6C277.982 278.76 275.442 276.22 273.602 272.98C271.802 269.74 270.902 266.04 270.902 261.88C270.902 257.72 271.802 254.02 273.602 250.78C275.442 247.5 277.982 244.96 281.222 243.16C284.462 241.32 288.162 240.4 292.322 240.4C297.362 240.4 301.602 241.62 305.042 244.06C308.522 246.5 310.822 249.88 311.942 254.2H300.602ZM328.605 249.1V257.62H342.345V265.54H328.605V274.78H344.145V283H318.345V240.88H344.145V249.1H328.605ZM366.046 283.42C362.966 283.42 360.206 282.92 357.766 281.92C355.326 280.92 353.366 279.44 351.886 277.48C350.446 275.52 349.686 273.16 349.606 270.4H360.526C360.686 271.96 361.226 273.16 362.146 274C363.066 274.8 364.266 275.2 365.746 275.2C367.266 275.2 368.466 274.86 369.346 274.18C370.226 273.46 370.666 272.48 370.666 271.24C370.666 270.2 370.306 269.34 369.586 268.66C368.906 267.98 368.046 267.42 367.006 266.98C366.006 266.54 364.566 266.04 362.686 265.48C359.966 264.64 357.746 263.8 356.026 262.96C354.306 262.12 352.826 260.88 351.586 259.24C350.346 257.6 349.726 255.46 349.726 252.82C349.726 248.9 351.146 245.84 353.986 243.64C356.826 241.4 360.526 240.28 365.086 240.28C369.726 240.28 373.466 241.4 376.306 243.64C379.146 245.84 380.666 248.92 380.866 252.88H369.766C369.686 251.52 369.186 250.46 368.266 249.7C367.346 248.9 366.166 248.5 364.726 248.5C363.486 248.5 362.486 248.84 361.726 249.52C360.966 250.16 360.586 251.1 360.586 252.34C360.586 253.7 361.226 254.76 362.506 255.52C363.786 256.28 365.786 257.1 368.506 257.98C371.226 258.9 373.426 259.78 375.106 260.62C376.826 261.46 378.306 262.68 379.546 264.28C380.786 265.88 381.406 267.94 381.406 270.46C381.406 272.86 380.786 275.04 379.546 277C378.346 278.96 376.586 280.52 374.266 281.68C371.946 282.84 369.206 283.42 366.046 283.42Z" fill="#FFFACC"/>
<rect width="450" height="450" rx="225" transform="matrix(-1 0 0 1 843 0)" fill="#FFFACC" fill-opacity="0.1"/>
<path d="M554.75 181L549.753 180.813L549.56 186H554.75V181ZM572.25 139.75L575.551 143.506L572.25 139.75ZM649 131.75L646.798 136.239L646.814 136.247L646.831 136.255L649 131.75ZM669.25 149.5L664.963 152.072L664.983 152.107L665.005 152.142L669.25 149.5ZM668 201.75L671.895 204.885L671.913 204.862L671.932 204.839L668 201.75ZM648.75 215.75L647.137 211.017L643.75 212.172V215.75H648.75ZM648.75 216.75H643.75V220.354L647.169 221.493L648.75 216.75ZM671.25 232.5L675.25 229.5L671.25 232.5ZM672.25 288.25L667.97 285.664L667.962 285.678L667.954 285.691L672.25 288.25ZM651.5 306.75L649.297 302.262L649.28 302.27L649.264 302.278L651.5 306.75ZM571.25 298.75L568.054 302.596L568.068 302.607L568.081 302.617L571.25 298.75ZM552.5 254.25V249.25H547.329L547.503 254.418L552.5 254.25ZM594 254.25L598.999 254.136L598.888 249.25H594V254.25ZM600.25 271.75L596.576 275.141L596.609 275.177L596.643 275.213L600.25 271.75ZM632.75 272.5L629.137 269.044L629.133 269.048L632.75 272.5ZM630.5 240.25L627.543 244.282L627.618 244.337L627.696 244.39L630.5 240.25ZM598.25 234.75H593.25V239.75H598.25V234.75ZM598.25 200V195H593.25V200H598.25ZM626.75 195.75L629.154 200.134L629.178 200.121L629.201 200.108L626.75 195.75ZM629.75 166L633.286 162.464L629.75 166ZM601.75 166.75L597.895 163.566L597.853 163.616L597.812 163.668L601.75 166.75ZM596.5 181V186H601.078L601.481 181.439L596.5 181ZM559.747 181.187C560.374 164.403 565.801 152.073 575.551 143.506L568.949 135.994C556.699 146.76 550.459 161.93 549.753 180.813L559.747 181.187ZM575.551 143.506C585.402 134.849 599.025 130.25 617 130.25V120.25C597.309 120.25 581.098 125.318 568.949 135.994L575.551 143.506ZM617 130.25C628.937 130.25 638.81 132.32 646.798 136.239L651.202 127.261C641.524 122.513 630.063 120.25 617 120.25V130.25ZM646.831 136.255C655.08 140.227 661.034 145.524 664.963 152.072L673.537 146.928C668.466 138.476 660.92 131.94 651.169 127.245L646.831 136.255ZM665.005 152.142C669.15 158.803 671.25 166.295 671.25 174.75H681.25C681.25 164.538 678.684 155.197 673.495 146.858L665.005 152.142ZM671.25 174.75C671.25 184.9 668.726 192.733 664.068 198.661L671.932 204.839C678.274 196.767 681.25 186.6 681.25 174.75H671.25ZM664.105 198.615C659.118 204.811 653.459 208.862 647.137 211.017L650.363 220.483C658.708 217.638 665.882 212.356 671.895 204.885L664.105 198.615ZM643.75 215.75V216.75H653.75V215.75H643.75ZM647.169 221.493C655.797 224.37 662.417 229.056 667.25 235.5L675.25 229.5C669.083 221.278 660.703 215.464 650.331 212.007L647.169 221.493ZM667.25 235.5C671.951 241.768 674.5 250.053 674.5 260.75H684.5C684.5 248.447 681.549 237.898 675.25 229.5L667.25 235.5ZM674.5 260.75C674.5 270.271 672.284 278.525 667.97 285.664L676.53 290.836C681.883 281.975 684.5 271.896 684.5 260.75H674.5ZM667.954 285.691C663.842 292.595 657.702 298.136 649.297 302.262L653.703 311.238C663.632 306.364 671.325 299.572 676.546 290.809L667.954 285.691ZM649.264 302.278C641.106 306.357 631.158 308.5 619.25 308.5V318.5C632.342 318.5 643.894 316.143 653.736 311.222L649.264 302.278ZM619.25 308.5C600.066 308.5 585.294 303.794 574.419 294.883L568.081 302.617C581.206 313.373 598.434 318.5 619.25 318.5V308.5ZM574.446 294.904C564.009 286.232 558.131 272.929 557.497 254.082L547.503 254.418C548.203 275.238 554.824 291.602 568.054 302.596L574.446 294.904ZM552.5 259.25H594V249.25H552.5V259.25ZM589.001 254.364C589.189 262.606 591.562 269.71 596.576 275.141L603.924 268.359C600.938 265.123 599.145 260.561 598.999 254.136L589.001 254.364ZM596.643 275.213C601.865 280.652 609.186 283 617.75 283V273C610.981 273 606.635 271.181 603.857 268.287L596.643 275.213ZM617.75 283C625.209 283 631.675 280.868 636.367 275.952L629.133 269.048C626.825 271.466 623.291 273 617.75 273V283ZM636.363 275.956C641.064 271.042 643.25 264.73 643.25 257.5H633.25C633.25 262.604 631.769 266.292 629.137 269.044L636.363 275.956ZM643.25 257.5C643.25 248.365 640.228 240.8 633.304 236.11L627.696 244.39C631.106 246.7 633.25 250.635 633.25 257.5H643.25ZM633.457 236.218C627.147 231.591 617.733 229.75 606.25 229.75V239.75C617.1 239.75 623.853 241.576 627.543 244.282L633.457 236.218ZM606.25 229.75H598.25V239.75H606.25V229.75ZM603.25 234.75V200H593.25V234.75H603.25ZM598.25 205H606.25V195H598.25V205ZM606.25 205C615.242 205 622.996 203.511 629.154 200.134L624.346 191.366C620.171 193.656 614.258 195 606.25 195V205ZM629.201 200.108C636.487 196.01 639.75 188.826 639.75 180H629.75C629.75 186.174 627.679 189.49 624.299 191.392L629.201 200.108ZM639.75 180C639.75 173.054 637.795 166.974 633.286 162.464L626.214 169.536C628.372 171.693 629.75 174.946 629.75 180H639.75ZM633.286 162.464C628.802 157.981 622.826 156 616 156V166C620.841 166 624.031 167.352 626.214 169.536L633.286 162.464ZM616 156C608.618 156 602.261 158.28 597.895 163.566L605.605 169.934C607.572 167.553 610.716 166 616 166V156ZM597.812 163.668C594.122 168.384 592.09 174.097 591.519 180.561L601.481 181.439C601.91 176.57 603.378 172.782 605.688 169.832L597.812 163.668ZM596.5 176H554.75V186H596.5V176Z" fill="#FFFACC"/>
</svg>
