<svg width="877" height="450" viewBox="0 0 877 450" fill="none" xmlns="http://www.w3.org/2000/svg">
<path d="M490.98 206.08H504.42V214H480.72V171.88H490.98V206.08ZM519.574 171.88V214H509.314V171.88H519.574ZM566.549 171.88L551.609 214H538.769L523.829 171.88H534.749L545.189 203.68L555.689 171.88H566.549ZM581.097 180.1V188.62H594.837V196.54H581.097V205.78H596.637V214H570.837V171.88H596.637V180.1H581.097ZM512.82 275.44C512.82 277.88 512.26 280.12 511.14 282.16C510.02 284.16 508.3 285.78 505.98 287.02C503.66 288.26 500.78 288.88 497.34 288.88H490.98V304H480.72V261.88H497.34C500.7 261.88 503.54 262.46 505.86 263.62C508.18 264.78 509.92 266.38 511.08 268.42C512.24 270.46 512.82 272.8 512.82 275.44ZM496.56 280.72C498.52 280.72 499.98 280.26 500.94 279.34C501.9 278.42 502.38 277.12 502.38 275.44C502.38 273.76 501.9 272.46 500.94 271.54C499.98 270.62 498.52 270.16 496.56 270.16H490.98V280.72H496.56ZM539.641 304L530.881 288.1H528.421V304H518.161V261.88H535.381C538.701 261.88 541.521 262.46 543.841 263.62C546.201 264.78 547.961 266.38 549.121 268.42C550.281 270.42 550.861 272.66 550.861 275.14C550.861 277.94 550.061 280.44 548.461 282.64C546.901 284.84 544.581 286.4 541.501 287.32L551.221 304H539.641ZM528.421 280.84H534.781C536.661 280.84 538.061 280.38 538.981 279.46C539.941 278.54 540.421 277.24 540.421 275.56C540.421 273.96 539.941 272.7 538.981 271.78C538.061 270.86 536.661 270.4 534.781 270.4H528.421V280.84ZM577.222 304.42C573.262 304.42 569.622 303.5 566.302 301.66C563.022 299.82 560.402 297.26 558.442 293.98C556.522 290.66 555.562 286.94 555.562 282.82C555.562 278.7 556.522 275 558.442 271.72C560.402 268.44 563.022 265.88 566.302 264.04C569.622 262.2 573.262 261.28 577.222 261.28C581.182 261.28 584.802 262.2 588.082 264.04C591.402 265.88 594.002 268.44 595.882 271.72C597.802 275 598.762 278.7 598.762 282.82C598.762 286.94 597.802 290.66 595.882 293.98C593.962 297.26 591.362 299.82 588.082 301.66C584.802 303.5 581.182 304.42 577.222 304.42ZM577.222 295.06C580.582 295.06 583.262 293.94 585.262 291.7C587.302 289.46 588.322 286.5 588.322 282.82C588.322 279.1 587.302 276.14 585.262 273.94C583.262 271.7 580.582 270.58 577.222 270.58C573.822 270.58 571.102 271.68 569.062 273.88C567.062 276.08 566.062 279.06 566.062 282.82C566.062 286.54 567.062 289.52 569.062 291.76C571.102 293.96 573.822 295.06 577.222 295.06ZM630.87 261.88V290.56C630.87 295 629.61 298.42 627.09 300.82C624.61 303.22 621.25 304.42 617.01 304.42C612.57 304.42 609.01 303.16 606.33 300.64C603.65 298.12 602.31 294.54 602.31 289.9H612.51C612.51 291.66 612.87 293 613.59 293.92C614.31 294.8 615.35 295.24 616.71 295.24C617.95 295.24 618.91 294.84 619.59 294.04C620.27 293.24 620.61 292.08 620.61 290.56V261.88H630.87ZM649.418 270.1V278.62H663.158V286.54H649.418V295.78H664.958V304H639.158V261.88H664.958V270.1H649.418ZM669.878 282.88C669.878 278.72 670.778 275.02 672.578 271.78C674.378 268.5 676.878 265.96 680.078 264.16C683.318 262.32 686.978 261.4 691.058 261.4C696.058 261.4 700.338 262.72 703.898 265.36C707.458 268 709.838 271.6 711.038 276.16H699.758C698.918 274.4 697.718 273.06 696.158 272.14C694.638 271.22 692.898 270.76 690.938 270.76C687.778 270.76 685.218 271.86 683.258 274.06C681.298 276.26 680.318 279.2 680.318 282.88C680.318 286.56 681.298 289.5 683.258 291.7C685.218 293.9 687.778 295 690.938 295C692.898 295 694.638 294.54 696.158 293.62C697.718 292.7 698.918 291.36 699.758 289.6H711.038C709.838 294.16 707.458 297.76 703.898 300.4C700.338 303 696.058 304.3 691.058 304.3C686.978 304.3 683.318 303.4 680.078 301.6C676.878 299.76 674.378 297.22 672.578 293.98C670.778 290.74 669.878 287.04 669.878 282.88ZM747.622 261.88V270.1H736.462V304H726.202V270.1H715.042V261.88H747.622ZM768.011 304.42C764.931 304.42 762.171 303.92 759.731 302.92C757.291 301.92 755.331 300.44 753.851 298.48C752.411 296.52 751.651 294.16 751.571 291.4H762.491C762.651 292.96 763.191 294.16 764.111 295C765.031 295.8 766.231 296.2 767.711 296.2C769.231 296.2 770.431 295.86 771.311 295.18C772.191 294.46 772.631 293.48 772.631 292.24C772.631 291.2 772.271 290.34 771.551 289.66C770.871 288.98 770.011 288.42 768.971 287.98C767.971 287.54 766.531 287.04 764.651 286.48C761.931 285.64 759.711 284.8 757.991 283.96C756.271 283.12 754.791 281.88 753.551 280.24C752.311 278.6 751.691 276.46 751.691 273.82C751.691 269.9 753.111 266.84 755.951 264.64C758.791 262.4 762.491 261.28 767.051 261.28C771.691 261.28 775.431 262.4 778.271 264.64C781.111 266.84 782.631 269.92 782.831 273.88H771.731C771.651 272.52 771.151 271.46 770.231 270.7C769.311 269.9 768.131 269.5 766.691 269.5C765.451 269.5 764.451 269.84 763.691 270.52C762.931 271.16 762.551 272.1 762.551 273.34C762.551 274.7 763.191 275.76 764.471 276.52C765.751 277.28 767.751 278.1 770.471 278.98C773.191 279.9 775.391 280.78 777.071 281.62C778.791 282.46 780.271 283.68 781.511 285.28C782.751 286.88 783.371 288.94 783.371 291.46C783.371 293.86 782.751 296.04 781.511 298C780.311 299.96 778.551 301.52 776.231 302.68C773.911 303.84 771.171 304.42 768.011 304.42Z" fill="#FFFACC"/>
<rect width="450" height="450" rx="225" transform="matrix(-1 0 0 1 450 0)" fill="#FFFACC" fill-opacity="0.1"/>
<path d="M162.75 277.75L159.641 273.834L157.75 275.336V277.75H162.75ZM170.5 271.5L167.315 267.646L173.274 275.66L170.5 271.5ZM209 238.25L205.63 234.556L205.614 234.571L205.598 234.586L209 238.25ZM238 167.25L234.145 170.434V170.434L238 167.25ZM208.75 168.75L204.767 165.728L204.758 165.739L204.75 165.75L208.75 168.75ZM203.5 188.75V193.75H208.5V188.75H203.5ZM162.25 188.75L157.251 188.632L157.131 193.75H162.25V188.75ZM171.25 153.25L166.989 150.634L166.972 150.661L166.956 150.689L171.25 153.25ZM194 132.25L191.86 127.731L191.844 127.739L191.829 127.746L194 132.25ZM270.25 140.75L266.685 144.256L266.7 144.271L266.714 144.286L270.25 140.75ZM267.25 230.25L271.15 233.379L271.159 233.368L271.167 233.358L267.25 230.25ZM220.75 274.75L217.7 270.788L206.06 279.75H220.75V274.75ZM288.25 274.75H293.25V269.75H288.25V274.75ZM288.25 309.5V314.5H293.25V309.5H288.25ZM162.75 309.5H157.75V314.5H162.75V309.5ZM165.859 281.666C168.694 279.415 170.769 277.759 172.076 276.705C172.722 276.184 173.21 275.786 173.513 275.532C173.595 275.463 173.86 275.243 174.079 275.024C174.122 274.981 174.196 274.905 174.282 274.808C174.339 274.744 174.539 274.521 174.747 274.201C174.842 274.056 175.071 273.693 175.257 273.182C175.37 272.875 175.922 271.353 175.184 269.562C174.212 267.202 172.065 266.589 171.048 266.489C170.143 266.401 169.445 266.587 169.242 266.642C168.733 266.781 168.362 266.972 168.292 267.008C168.153 267.078 168.044 267.141 167.987 267.176C167.868 267.246 167.773 267.309 167.726 267.34L173.274 275.66C173.258 275.671 173.188 275.717 173.089 275.776C173.041 275.805 172.941 275.863 172.808 275.93C172.744 275.962 172.378 276.152 171.873 276.29C171.672 276.345 170.976 276.53 170.072 276.442C169.056 276.342 166.909 275.729 165.937 273.37C165.2 271.58 165.752 270.059 165.864 269.753C166.05 269.243 166.278 268.882 166.371 268.739C166.577 268.423 166.773 268.204 166.825 268.146C166.906 268.056 166.973 267.988 167.007 267.953C167.158 267.802 167.26 267.725 167.081 267.875C166.863 268.058 166.445 268.399 165.799 268.92C164.523 269.949 162.473 271.585 159.641 273.834L165.859 281.666ZM173.685 275.354C190.051 261.827 202.968 250.675 212.402 241.914L205.598 234.586C196.366 243.159 183.615 254.173 167.315 267.646L173.685 275.354ZM212.37 241.944C222.122 233.047 230.385 223.676 237.127 213.823L228.873 208.177C222.615 217.324 214.878 226.12 205.63 234.556L212.37 241.944ZM237.127 213.823C244.037 203.723 247.75 193.506 247.75 183.25H237.75C237.75 190.994 234.963 199.277 228.873 208.177L237.127 213.823ZM247.75 183.25C247.75 175.687 245.997 169.08 241.855 164.066L234.145 170.434C236.336 173.087 237.75 177.146 237.75 183.25H247.75ZM241.855 164.066C237.489 158.78 231.132 156.5 223.75 156.5V166.5C229.034 166.5 232.178 168.053 234.145 170.434L241.855 164.066ZM223.75 156.5C215.933 156.5 209.426 159.586 204.767 165.728L212.733 171.772C215.407 168.247 218.9 166.5 223.75 166.5V156.5ZM204.75 165.75C200.354 171.612 198.5 179.503 198.5 188.75H208.5C208.5 180.664 210.146 175.221 212.75 171.75L204.75 165.75ZM203.5 183.75H162.25V193.75H203.5V183.75ZM167.249 188.868C167.567 175.326 170.426 164.391 175.544 155.811L166.956 150.689C160.74 161.109 157.599 173.841 157.251 188.632L167.249 188.868ZM175.511 155.866C180.883 147.118 187.767 140.806 196.171 136.754L191.829 127.746C181.566 132.694 173.284 140.382 166.989 150.634L175.511 155.866ZM196.14 136.769C204.91 132.614 214.67 130.5 225.5 130.5V120.5C213.33 120.5 202.09 122.886 191.86 127.731L196.14 136.769ZM225.5 130.5C244.527 130.5 257.943 135.369 266.685 144.256L273.815 137.244C262.557 125.798 246.139 120.5 225.5 120.5V130.5ZM266.714 144.286C275.813 153.384 280.5 165.296 280.5 180.5H290.5C290.5 163.037 285.02 148.449 273.786 137.214L266.714 144.286ZM280.5 180.5C280.5 197.093 274.871 212.601 263.333 227.142L271.167 233.358C283.962 217.232 290.5 199.574 290.5 180.5H280.5ZM263.35 227.121C251.48 241.918 236.285 256.479 217.7 270.788L223.8 278.712C242.882 264.021 258.686 248.916 271.15 233.379L263.35 227.121ZM220.75 279.75H288.25V269.75H220.75V279.75ZM283.25 274.75V309.5H293.25V274.75H283.25ZM288.25 304.5H162.75V314.5H288.25V304.5ZM167.75 309.5V277.75H157.75V309.5H167.75Z" fill="#FFFACC"/>
</svg>
